<?xml version="1.0" encoding="UTF-8"?>
<svg width="700px" height="300px" version="1.1" viewBox="0 0 700 700" xmlns="http://www.w3.org/2000/svg">
 <g>
  <path d="m518.42 197.12h-0.42188v-1.1211l-140-75.461v23.871l109.62 59.359-127.89 69.23-9.7305 5.5312-137.62-74.762 102.62-55.578v-23.871l-133 71.68-53.48 82.738 53.48 29.262v70l168 91 168-91v-70l53.48-29.051zm23.102 74.059-139.3 75.602-36.891-52.781 141.19-77zm-348.11-53.758 141.26 76.578-36.891 52.711-139.3-75.531zm9.5898 101.78 101.22 54.949 35-50.398v116.06l-136.22-73.988zm294 46.621-136.5 73.988v-115.99l35 50.398 101.5-55.02z"/>
  <path d="m357 196v-114.66l26.602 26.602 14.84-14.84-51.941-51.941-51.941 51.941 14.84 14.84 26.602-26.602v114.66z"/>
 </g>
</svg>
