<svg width="24" height="24" viewBox="0 0 24 24" fill="none" xmlns="http://www.w3.org/2000/svg">
<g id="Pill">
<g id="Vector">
<mask id="path-1-inside-1_1140_2222" fill="white">
<path d="M20.0344 3.96561C19.0961 3.03016 17.8251 2.50488 16.5001 2.50488C15.1751 2.50488 13.9041 3.03016 12.9657 3.96561L3.9657 12.9656C3.02832 13.903 2.50171 15.1743 2.50171 16.5C2.50171 17.8256 3.02832 19.097 3.9657 20.0344C4.90307 20.9717 6.17442 21.4983 7.50007 21.4983C8.82572 21.4983 10.0971 20.9717 11.0344 20.0344L20.0344 11.0344C20.9676 10.0948 21.4913 8.82424 21.4913 7.49998C21.4913 6.17573 20.9676 4.90521 20.0344 3.96561ZM18.9657 9.96561L15.0001 13.9406L10.0594 8.99998L14.0344 5.03436C14.3564 4.70725 14.7402 4.44747 15.1635 4.27014C15.5868 4.09282 16.0411 4.0015 16.5001 4.0015C16.959 4.0015 17.4134 4.09282 17.8367 4.27014C18.26 4.44747 18.6438 4.70725 18.9657 5.03436C19.2905 5.35756 19.5483 5.74176 19.7242 6.1649C19.9001 6.58803 19.9907 7.04175 19.9907 7.49998C19.9907 7.95822 19.9001 8.41194 19.7242 8.83507C19.5483 9.2582 19.2905 9.64241 18.9657 9.96561ZM17.8313 7.77186C17.9007 7.84208 17.9553 7.92546 17.992 8.0171C18.0287 8.10875 18.0467 8.2068 18.045 8.30549C18.0432 8.40419 18.0218 8.50155 17.9819 8.59183C17.9419 8.68212 17.8844 8.76351 17.8126 8.83123L15.5251 11.0437C15.4549 11.1131 15.3715 11.1678 15.2798 11.2044C15.1882 11.2411 15.0901 11.2591 14.9914 11.2574C14.8927 11.2556 14.7954 11.2342 14.7051 11.1943C14.6148 11.1544 14.5334 11.0968 14.4657 11.025C14.3963 10.9548 14.3417 10.8714 14.305 10.7797C14.2683 10.6881 14.2503 10.59 14.252 10.4913C14.2538 10.3927 14.2752 10.2953 14.3152 10.205C14.3551 10.1147 14.4126 10.0333 14.4844 9.96561L16.7719 7.75311C16.915 7.61531 17.1069 7.53989 17.3055 7.54341C17.5041 7.54692 17.6932 7.62908 17.8313 7.77186Z"/>
</mask>
<path d="M20.0344 3.96561C19.0961 3.03016 17.8251 2.50488 16.5001 2.50488C15.1751 2.50488 13.9041 3.03016 12.9657 3.96561L3.9657 12.9656C3.02832 13.903 2.50171 15.1743 2.50171 16.5C2.50171 17.8256 3.02832 19.097 3.9657 20.0344C4.90307 20.9717 6.17442 21.4983 7.50007 21.4983C8.82572 21.4983 10.0971 20.9717 11.0344 20.0344L20.0344 11.0344C20.9676 10.0948 21.4913 8.82424 21.4913 7.49998C21.4913 6.17573 20.9676 4.90521 20.0344 3.96561ZM18.9657 9.96561L15.0001 13.9406L10.0594 8.99998L14.0344 5.03436C14.3564 4.70725 14.7402 4.44747 15.1635 4.27014C15.5868 4.09282 16.0411 4.0015 16.5001 4.0015C16.959 4.0015 17.4134 4.09282 17.8367 4.27014C18.26 4.44747 18.6438 4.70725 18.9657 5.03436C19.2905 5.35756 19.5483 5.74176 19.7242 6.1649C19.9001 6.58803 19.9907 7.04175 19.9907 7.49998C19.9907 7.95822 19.9001 8.41194 19.7242 8.83507C19.5483 9.2582 19.2905 9.64241 18.9657 9.96561ZM17.8313 7.77186C17.9007 7.84208 17.9553 7.92546 17.992 8.0171C18.0287 8.10875 18.0467 8.2068 18.045 8.30549C18.0432 8.40419 18.0218 8.50155 17.9819 8.59183C17.9419 8.68212 17.8844 8.76351 17.8126 8.83123L15.5251 11.0437C15.4549 11.1131 15.3715 11.1678 15.2798 11.2044C15.1882 11.2411 15.0901 11.2591 14.9914 11.2574C14.8927 11.2556 14.7954 11.2342 14.7051 11.1943C14.6148 11.1544 14.5334 11.0968 14.4657 11.025C14.3963 10.9548 14.3417 10.8714 14.305 10.7797C14.2683 10.6881 14.2503 10.59 14.252 10.4913C14.2538 10.3927 14.2752 10.2953 14.3152 10.205C14.3551 10.1147 14.4126 10.0333 14.4844 9.96561L16.7719 7.75311C16.915 7.61531 17.1069 7.53989 17.3055 7.54341C17.5041 7.54692 17.6932 7.62908 17.8313 7.77186Z" fill="#EDF8FA"/>
<path d="M16.5001 2.50488V1.00488V2.50488ZM12.9657 3.96561L11.9067 2.90328L11.905 2.90495L12.9657 3.96561ZM3.9657 12.9656L5.02636 14.0263L3.9657 12.9656ZM2.50171 16.5H1.00171H2.50171ZM7.50007 21.4983V19.9983V21.4983ZM11.0344 20.0344L9.97379 18.9737H9.97378L11.0344 20.0344ZM20.0344 11.0344L21.0951 12.095L21.0987 12.0914L20.0344 11.0344ZM21.4913 7.49998H22.9913H21.4913ZM15.0001 13.9406L13.9394 15.0013L15.0013 16.0632L16.062 15L15.0001 13.9406ZM10.0594 8.99998L9.00004 7.93807L7.93687 8.99873L8.99879 10.0606L10.0594 8.99998ZM14.0344 5.03436L15.0939 6.09632L15.1036 6.08651L14.0344 5.03436ZM16.5001 4.0015V2.5015V4.0015ZM18.9657 5.03436L17.8966 6.08651L17.9021 6.09213L17.9077 6.0977L18.9657 5.03436ZM19.9907 7.49998H21.4907H19.9907ZM18.9657 9.96561L17.9077 8.90226L17.9038 8.9062L18.9657 9.96561ZM17.8313 7.77186L16.7532 8.81472L16.7587 8.82044L16.7643 8.8261L17.8313 7.77186ZM17.8126 8.83123L16.7835 7.7399L16.7766 7.74643L16.7697 7.75305L17.8126 8.83123ZM15.5251 11.0437L14.4822 9.96555L14.4765 9.97109L14.4708 9.97669L15.5251 11.0437ZM14.4657 11.025L15.557 9.99591L15.545 9.98319L15.5327 9.97075L14.4657 11.025ZM14.4844 9.96561L15.5135 11.0569L15.5204 11.0504L15.5273 11.0438L14.4844 9.96561ZM16.7719 7.75311L15.7314 6.67274L15.7291 6.67492L16.7719 7.75311ZM21.0934 2.90328C19.8739 1.68755 18.2221 1.00488 16.5001 1.00488V4.00488C17.4281 4.00488 18.3182 4.37278 18.9755 5.02794L21.0934 2.90328ZM16.5001 1.00488C14.7781 1.00488 13.1263 1.68755 11.9067 2.90328L14.0247 5.02794C14.6819 4.37278 15.5721 4.00488 16.5001 4.00488V1.00488ZM11.905 2.90495L2.90503 11.9049L5.02636 14.0263L14.0264 5.02627L11.905 2.90495ZM2.90503 11.9049C1.68636 13.1236 1.00171 14.7765 1.00171 16.5H4.00171C4.00171 15.5722 4.37029 14.6823 5.02636 14.0263L2.90503 11.9049ZM1.00171 16.5C1.00171 18.2235 1.68636 19.8763 2.90503 21.095L5.02636 18.9737C4.37028 18.3176 4.00171 17.4278 4.00171 16.5H1.00171ZM2.90503 21.095C4.12371 22.3137 5.7766 22.9983 7.50007 22.9983V19.9983C6.57225 19.9983 5.68243 19.6298 5.02636 18.9737L2.90503 21.095ZM7.50007 22.9983C9.22354 22.9983 10.8764 22.3137 12.0951 21.095L9.97378 18.9737C9.31771 19.6298 8.42789 19.9983 7.50007 19.9983V22.9983ZM12.0951 21.095L21.0951 12.095L18.9738 9.9737L9.97379 18.9737L12.0951 21.095ZM21.0987 12.0914C22.311 10.8708 22.9913 9.22028 22.9913 7.49998H19.9913C19.9913 8.4282 19.6242 9.31875 18.9701 9.97735L21.0987 12.0914ZM22.9913 7.49998C22.9913 5.77969 22.311 4.1292 21.0987 2.9086L18.9701 5.02262C19.6242 5.68122 19.9913 6.57177 19.9913 7.49998H22.9913ZM17.9038 8.9062L13.9382 12.8812L16.062 15L20.0276 11.025L17.9038 8.9062ZM16.0607 12.8799L11.1201 7.93932L8.99879 10.0606L13.9394 15.0013L16.0607 12.8799ZM11.1189 10.0619L15.0939 6.09627L12.975 3.97245L9.00004 7.93807L11.1189 10.0619ZM15.1036 6.08651C15.2859 5.90124 15.5033 5.7541 15.743 5.65366L14.5839 2.88663C13.9771 3.14084 13.4268 3.51327 12.9653 3.98221L15.1036 6.08651ZM15.743 5.65366C15.9828 5.55322 16.2401 5.5015 16.5001 5.5015V2.5015C15.8421 2.5015 15.1908 2.63242 14.5839 2.88663L15.743 5.65366ZM16.5001 5.5015C16.76 5.5015 17.0174 5.55322 17.2571 5.65366L18.4162 2.88663C17.8094 2.63242 17.158 2.5015 16.5001 2.5015V5.5015ZM17.2571 5.65366C17.4969 5.75409 17.7143 5.90123 17.8966 6.08651L20.0348 3.98221C19.5733 3.51327 19.0231 3.14084 18.4162 2.88663L17.2571 5.65366ZM17.9077 6.0977C18.0925 6.28152 18.2391 6.50003 18.3391 6.74068L21.1093 5.58912C20.8575 4.9835 20.4886 4.4336 20.0237 3.97102L17.9077 6.0977ZM18.3391 6.74068C18.4392 6.98133 18.4907 7.23937 18.4907 7.49998H21.4907C21.4907 6.84413 21.3611 6.19473 21.1093 5.58912L18.3391 6.74068ZM18.4907 7.49998C18.4907 7.7606 18.4392 8.01864 18.3391 8.25929L21.1093 9.41085C21.3611 8.80524 21.4907 8.15584 21.4907 7.49998H18.4907ZM18.3391 8.25929C18.2391 8.49994 18.0925 8.71845 17.9077 8.90227L20.0237 11.029C20.4886 10.5664 20.8575 10.0165 21.1093 9.41085L18.3391 8.25929ZM16.7643 8.8261C16.6931 8.7541 16.6371 8.6686 16.5995 8.57464L19.3846 7.45957C19.2736 7.18232 19.1083 6.93007 18.8984 6.71762L16.7643 8.8261ZM16.5995 8.57464C16.5619 8.48069 16.5434 8.38015 16.5452 8.27895L19.5447 8.33204C19.55 8.03344 19.4956 7.7368 19.3846 7.45957L16.5995 8.57464ZM16.5452 8.27895C16.547 8.17774 16.569 8.07793 16.6099 7.98536L19.3538 9.1983C19.4745 8.92517 19.5395 8.63064 19.5447 8.33204L16.5452 8.27895ZM16.6099 7.98536C16.6508 7.8928 16.7099 7.80934 16.7835 7.7399L18.8416 9.92257C19.0589 9.71769 19.233 9.47144 19.3538 9.1983L16.6099 7.98536ZM16.7697 7.75305L14.4822 9.96555L16.5679 12.1219L18.8554 9.90942L16.7697 7.75305ZM14.4708 9.97669C14.5428 9.90555 14.6283 9.84953 14.7223 9.81191L15.8374 12.597C16.1146 12.486 16.3669 12.3207 16.5793 12.1108L14.4708 9.97669ZM14.7223 9.81191C14.8162 9.77429 14.9168 9.75583 15.018 9.75762L14.9649 12.7572C15.2635 12.7624 15.5601 12.708 15.8374 12.597L14.7223 9.81191ZM15.018 9.75762C15.1192 9.75942 15.219 9.78142 15.3116 9.82234L14.0986 12.5662C14.3718 12.6869 14.6663 12.7519 14.9649 12.7572L15.018 9.75762ZM15.3116 9.82234C15.4041 9.86326 15.4876 9.92227 15.557 9.99591L13.3744 12.0541C13.5792 12.2713 13.8255 12.4455 14.0986 12.5662L15.3116 9.82234ZM15.5327 9.97075C15.6039 10.0427 15.6599 10.1282 15.6975 10.2222L12.9125 11.3373C13.0235 11.6145 13.1888 11.8668 13.3986 12.0792L15.5327 9.97075ZM15.6975 10.2222C15.7351 10.3162 15.7536 10.4167 15.7518 10.5179L12.7523 10.4648C12.747 10.7634 12.8015 11.06 12.9125 11.3373L15.6975 10.2222ZM15.7518 10.5179C15.75 10.6191 15.728 10.7189 15.6871 10.8115L12.9432 9.59855C12.8225 9.87168 12.7576 10.1662 12.7523 10.4648L15.7518 10.5179ZM15.6871 10.8115C15.6462 10.904 15.5872 10.9875 15.5135 11.0569L13.4554 8.87428C13.2381 9.07916 13.064 9.32541 12.9432 9.59855L15.6871 10.8115ZM15.5273 11.0438L17.8148 8.8313L15.7291 6.67492L13.4416 8.88742L15.5273 11.0438ZM17.8125 8.83347C17.6695 8.97127 17.4776 9.04669 17.279 9.04317L17.3321 6.04364C16.7362 6.0331 16.1606 6.25935 15.7314 6.67275L17.8125 8.83347ZM17.279 9.04317C17.0804 9.03966 16.8913 8.9575 16.7532 8.81472L18.9095 6.729C18.4952 6.30067 17.9279 6.05419 17.3321 6.04364L17.279 9.04317Z" fill="#EDF8FA" mask="url(#path-1-inside-1_1140_2222)"/>
</g>
</g>
</svg>
