<svg width="24" height="24" viewBox="0 0 24 24" fill="none" xmlns="http://www.w3.org/2000/svg">
<g id="User">
<path id="Vector" d="M21.0958 20.258L21.102 20.2687L21.0958 20.258ZM21.0958 20.258L21.1019 20.2687L21.102 20.2687L21.4687 20.9014L21.0958 20.258ZM15.2183 15.507C17.6931 16.3108 19.7843 17.9997 21.091 20.2498L21.091 20.2499H2.90896L2.90891 20.2498C4.21566 17.9997 6.30681 16.3108 8.78166 15.507L10.3566 14.9954L8.9333 14.149C7.80373 13.4773 6.92594 12.4534 6.43477 11.2344C5.9436 10.0154 5.86623 8.66894 6.21453 7.40174C6.56284 6.13455 7.31755 5.01676 8.36274 4.22009C9.40793 3.42342 10.6858 2.99194 12 2.99194C13.3142 2.99194 14.592 3.42342 15.6372 4.22009C16.6824 5.01676 17.4371 6.13455 17.7854 7.40174C18.1337 8.66894 18.0563 10.0154 17.5652 11.2344C17.074 12.4534 16.1962 13.4773 15.0666 14.149L13.6433 14.9954L15.2183 15.507ZM2.89799 20.2687L2.90416 20.258L2.89797 20.2687L2.89799 20.2687Z" fill="#EDF8FA" stroke="#EDF8FA" stroke-width="1.5"/>
</g>
</svg>
