<?xml version="1.0" encoding="UTF-8"?>
<svg id="Layer_2" data-name="Layer 2" xmlns="http://www.w3.org/2000/svg" viewBox="0 0 95.23 95.58">
  <defs>
    <style>
      .cls-1 {
        fill: #6987bc;
      }
    </style>
  </defs>
  <g id="Layer_1-2" data-name="Layer 1">
    <g>
      <path class="cls-1" d="M47.99,20.52c-15.06,0-27.28,12.22-27.28,27.28s12.22,27.27,27.28,27.27,27.27-12.21,27.27-27.27-12.2-27.28-27.27-27.28Zm0,48.18c-11.53,0-20.91-9.37-20.91-20.9s9.38-20.91,20.91-20.91,20.9,9.38,20.9,20.91-9.37,20.9-20.9,20.9Z"/>
      <path class="cls-1" d="M47.99,16.81c.25,0,.48,.04,.73,.04-.68-1.8-2.07-5.24-3.69-8.46-2.79-5.5-1.44-8.39-1.44-8.39,0,0-2.72,.84-5.33,6.04-1.9,3.75,.41,8.86,2.08,11.76,2.45-.62,5-.99,7.65-.99Z"/>
      <path class="cls-1" d="M36.82,18.9c.22-.08,.46-.14,.69-.22-1.29-1.43-3.81-4.14-6.49-6.56-4.59-4.12-4.38-7.31-4.38-7.31,0,0-2.22,1.77-2.8,7.56-.41,4.2,3.59,8.13,6.19,10.22,2.07-1.46,4.32-2.72,6.78-3.69Z"/>
      <path class="cls-1" d="M27.15,24.87c.19-.15,.38-.29,.56-.46-1.72-.87-5.05-2.48-8.42-3.76-5.77-2.21-6.71-5.25-6.71-5.25,0,0-1.45,2.46,.11,8.05,1.13,4.06,6.28,6.29,9.46,7.31,1.4-2.11,3.03-4.09,5-5.89Z"/>
      <path class="cls-1" d="M20.27,33.96c.11-.22,.25-.43,.36-.64-1.92-.19-5.6-.5-9.21-.48-6.17,.02-8.16-2.47-8.16-2.47,0,0-.46,2.8,3.02,7.47,2.52,3.38,8.12,3.6,11.45,3.4,.53-2.47,1.35-4.93,2.54-7.29Z"/>
      <path class="cls-1" d="M17.15,44.88c.02-.24,.07-.48,.11-.73-1.85,.53-5.42,1.57-8.78,2.88-5.74,2.26-8.48,.65-8.48,.65,0,0,.58,2.78,5.5,5.88,3.58,2.25,8.88,.42,11.92-.97-.4-2.5-.51-5.07-.27-7.71Z"/>
      <path class="cls-1" d="M18.17,56.21c-.06-.23-.11-.48-.16-.72-1.55,1.15-4.49,3.42-7.13,5.85-4.55,4.17-7.69,3.67-7.69,3.67,0,0,1.53,2.39,7.24,3.5,4.15,.81,8.43-2.8,10.77-5.2-1.27-2.19-2.3-4.55-3.03-7.1Z"/>
      <path class="cls-1" d="M23.21,66.4c-.13-.2-.27-.4-.39-.6-1.04,1.63-2.96,4.8-4.56,8.02-2.74,5.54-5.84,6.2-5.84,6.2,0,0,2.32,1.67,8.02,.66,4.16-.76,6.86-5.67,8.17-8.75-1.97-1.59-3.8-3.41-5.4-5.53Z"/>
      <path class="cls-1" d="M31.61,74.09c-.22-.13-.41-.28-.61-.42-.37,1.89-1.03,5.54-1.34,9.12-.56,6.15-3.23,7.89-3.23,7.89,0,0,2.76,.72,7.73-2.29,3.6-2.2,4.34-7.76,4.45-11.1-2.42-.75-4.77-1.81-7-3.21Z"/>
      <path class="cls-1" d="M42.19,78.24c-.24-.06-.47-.12-.7-.19,.35,1.91,1.04,5.55,2.04,9.01,1.7,5.93-.16,8.52-.16,8.52,0,0,2.82-.32,6.37-4.93,2.58-3.34,1.25-8.79,.15-11.95-2.51,.16-5.1,.03-7.7-.46Z"/>
      <path class="cls-1" d="M53.57,78.29c-.25,.03-.5,.05-.72,.09,.99,1.65,2.96,4.78,5.15,7.65,3.71,4.92,2.91,8,2.91,8,0,0,2.53-1.31,4.17-6.89,1.19-4.04-2-8.65-4.17-11.2-2.29,1.05-4.74,1.86-7.34,2.35Z"/>
      <path class="cls-1" d="M64.18,74.23c-.21,.12-.42,.23-.64,.34,1.54,1.18,4.49,3.4,7.58,5.29,5.23,3.24,5.6,6.4,5.6,6.4,0,0,1.87-2.14,1.39-7.93-.33-4.19-4.99-7.35-7.91-8.94-1.77,1.82-3.75,3.45-6.02,4.85Z"/>
      <path class="cls-1" d="M72.63,66.6c-.15,.19-.32,.37-.47,.55,1.84,.54,5.41,1.55,8.96,2.19,6.07,1.13,7.54,3.94,7.54,3.94,0,0,.98-2.67-1.55-7.89-1.85-3.79-7.32-5.06-10.62-5.48-.99,2.33-2.25,4.58-3.86,6.69Z"/>
      <path class="cls-1" d="M77.75,56.45c-.06,.23-.16,.46-.23,.69,1.92-.16,5.6-.52,9.15-1.18,6.06-1.13,8.45,.95,8.45,.95,0,0-.05-2.84-4.31-6.8-3.07-2.87-8.63-2.08-11.88-1.28-.09,2.53-.43,5.08-1.18,7.63Z"/>
      <path class="cls-1" d="M78.87,45.13c.03,.24,.03,.48,.03,.71,1.73-.82,5.05-2.5,8.11-4.39,5.25-3.25,8.23-2.16,8.23-2.16,0,0-1.08-2.63-6.46-4.79-3.91-1.57-8.8,1.18-11.55,3.09,.84,2.39,1.41,4.9,1.65,7.54Z"/>
      <path class="cls-1" d="M75.82,34.16c.11,.23,.2,.45,.28,.67,1.33-1.4,3.8-4.16,5.97-7.03,3.74-4.92,6.91-4.98,6.91-4.98,0,0-1.95-2.07-7.76-2.14-4.21-.04-7.79,4.27-9.64,7.06,1.63,1.92,3.08,4.04,4.24,6.42Z"/>
      <path class="cls-1" d="M69.04,25.04c.17,.17,.34,.35,.51,.53,.72-1.79,2.04-5.25,3.02-8.72,1.71-5.94,4.64-7.14,4.64-7.14,0,0-2.58-1.22-8.01,.81-3.95,1.47-5.73,6.8-6.46,10.06,2.23,1.19,4.33,2.66,6.3,4.45Z"/>
      <path class="cls-1" d="M59.41,18.99c.22,.1,.45,.21,.65,.3,.04-1.92,.01-5.63-.31-9.22-.57-6.15,1.75-8.33,1.75-8.33,0,0-2.83-.2-7.18,3.64-3.14,2.81-2.88,8.41-2.39,11.72,2.5,.31,5.02,.92,7.48,1.89Z"/>
    </g>
  </g>
</svg>