<svg width="18" height="18" viewBox="0 0 18 18" fill="none" xmlns="http://www.w3.org/2000/svg">
<g id="Globe">
<path id="Vector" d="M9 15.75C12.7279 15.75 15.75 12.7279 15.75 9C15.75 5.27208 12.7279 2.25 9 2.25C5.27208 2.25 2.25 5.27208 2.25 9C2.25 12.7279 5.27208 15.75 9 15.75Z" stroke="#03012C" stroke-linecap="round" stroke-linejoin="round"/>
<path id="Vector_2" d="M15.0609 11.9813L11.243 9.63291C11.1773 9.59066 11.1027 9.56419 11.025 9.55557L9.41485 9.3376C9.29472 9.32035 9.17226 9.34343 9.06666 9.40323C8.96105 9.46304 8.87826 9.55618 8.83126 9.66807L7.86798 11.8267C7.82269 11.9271 7.80788 12.0386 7.82538 12.1473C7.84288 12.256 7.89192 12.3573 7.96642 12.4384L9.28829 13.8657C9.34805 13.9314 9.39183 14.01 9.41622 14.0954C9.44061 14.1807 9.44496 14.2706 9.42892 14.3579L9.1547 15.7501" stroke="#03012C" stroke-linecap="round" stroke-linejoin="round"/>
<path id="Vector_3" d="M4.57031 3.90918L3.9375 5.3998C3.88238 5.53214 3.87986 5.68052 3.93047 5.81465L4.73906 7.96621C4.77066 8.05589 4.82475 8.13595 4.89616 8.19874C4.96756 8.26153 5.05389 8.30493 5.14687 8.3248L6.65156 8.64824C6.73508 8.66513 6.81351 8.70125 6.88064 8.75373C6.94776 8.80621 7.00174 8.87361 7.03828 8.95059L7.30547 9.50605C7.35294 9.59997 7.42521 9.67911 7.51445 9.73488C7.60369 9.79066 7.70649 9.82094 7.81172 9.82246H8.76094" stroke="#03012C" stroke-linecap="round" stroke-linejoin="round"/>
<path id="Vector_4" d="M10.7226 2.46777L11.3766 3.64902C11.4369 3.76008 11.4586 3.88806 11.4383 4.01282C11.4179 4.13757 11.3566 4.252 11.2641 4.33809L9.37264 6.04668C9.34098 6.07691 9.30553 6.10291 9.26718 6.12402L8.40233 6.60215C8.31989 6.64589 8.22844 6.66996 8.13514 6.67246H6.63046C6.51961 6.67302 6.41134 6.70592 6.31891 6.76712C6.22649 6.82832 6.15393 6.91516 6.11014 7.01699L5.52655 8.40215" stroke="#03012C" stroke-linecap="round" stroke-linejoin="round"/>
</g>
</svg>
