<svg width="20" height="20" viewBox="0 0 20 20" fill="none" xmlns="http://www.w3.org/2000/svg">
<path d="M2.14872 3.47218C2.07519 3.47218 2.01147 3.43297 1.98206 3.3668C1.55563 2.46002 1.38653 2.31052 0.764041 2.31052C0.619446 2.31052 0.445443 2.32033 0.200368 2.34238C0.193015 2.34238 0.190565 2.34238 0.183212 2.34238C0.102338 2.34238 0.028815 2.28602 0.00675825 2.20514C-0.0177493 2.11937 0.0263643 2.02869 0.107239 1.99193C1.15616 1.49933 1.23459 1.36699 1.1292 0.21023C1.1243 0.122003 1.18067 0.038677 1.26645 0.0166203C1.2836 0.0117188 1.30076 0.0117188 1.31546 0.0117188C1.38653 0.0117188 1.4527 0.0509308 1.48211 0.117101C1.90609 1.02633 2.07519 1.17338 2.70014 1.17338C2.84228 1.17338 3.01873 1.16357 3.26136 1.14152H3.27851C3.35939 1.14152 3.43536 1.19543 3.45742 1.27876C3.48193 1.36453 3.43781 1.45521 3.35694 1.49197C2.30801 1.98457 2.22959 2.11937 2.33252 3.27367C2.33987 3.3619 2.28596 3.44522 2.19528 3.46728C2.18303 3.47218 2.16587 3.47463 2.14872 3.47463V3.47218Z" fill="#434747"/>
<path d="M8.71168 11.1166C8.6406 11.1166 8.57688 11.0774 8.54257 11.0112C7.89803 9.63145 7.61619 9.38882 6.64814 9.38882C6.43248 9.38882 6.1727 9.40353 5.80508 9.43539H5.78793C5.7046 9.43539 5.63108 9.37902 5.60902 9.30059C5.58452 9.21237 5.62618 9.12169 5.7095 9.08493C7.3123 8.33745 7.44464 8.10708 7.28779 6.34744C7.27799 6.25921 7.3368 6.17588 7.42013 6.15383C7.43728 6.14893 7.45444 6.14893 7.47159 6.14893C7.54022 6.14893 7.60394 6.18814 7.63334 6.25431C8.28034 7.63408 8.56463 7.87671 9.52778 7.87671C9.74589 7.87671 10.0057 7.862 10.3733 7.83014C10.3782 7.83014 10.3855 7.83014 10.3904 7.83014C10.4713 7.83014 10.5448 7.88651 10.5669 7.96493C10.589 8.05071 10.5522 8.14139 10.4689 8.18305C8.86607 8.93053 8.73373 9.1609 8.89058 10.9181C8.90038 11.0088 8.84157 11.0896 8.75824 11.1117C8.74109 11.1166 8.72393 11.1191 8.70923 11.1191L8.71168 11.1166Z" fill="#434747"/>
<path d="M19.7696 11.3985C19.6888 11.3985 19.6226 11.4377 19.5809 11.4989C19.3358 11.7587 18.9682 12.1729 18.4242 12.8174C17.4096 14.0061 16.0494 14.9202 14.4392 15.3907C10.0303 16.6798 5.41067 14.1482 4.12402 9.74174C3.06775 6.12933 4.57251 2.37968 7.57468 0.433783C7.64575 0.394571 7.69722 0.318598 7.69722 0.230371C7.69722 0.102932 7.59429 0 7.4693 0C7.43499 0 7.40313 0.00735226 7.37617 0.019606C2.42565 1.68122 -0.373109 6.97729 1.10469 12.0405C2.62171 17.2263 8.05503 20.2016 13.2457 18.687C16.689 17.6822 19.1545 14.952 19.9853 11.7121C19.9951 11.6852 20 11.6582 20 11.6288C20 11.5014 19.8971 11.3985 19.7696 11.3985Z" fill="#434747"/>
</svg>
