<svg width="24" height="24" viewBox="0 0 24 24" fill="none" xmlns="http://www.w3.org/2000/svg">
<path d="M18 2.00049L22 6.00049M2 22.0005L3.2764 17.3204C3.35968 17.015 3.40131 16.8623 3.46523 16.72C3.52199 16.5936 3.59172 16.4734 3.67332 16.3614C3.76521 16.2353 3.87711 16.1234 4.1009 15.8996L14.4343 5.56617C14.6323 5.36817 14.7313 5.26916 14.8455 5.23207C14.9459 5.19944 15.0541 5.19944 15.1545 5.23207C15.2687 5.26916 15.3677 5.36817 15.5657 5.56617L18.4343 8.4348C18.6323 8.63281 18.7313 8.73182 18.7684 8.84598C18.8011 8.9464 18.8011 9.05458 18.7684 9.155C18.7313 9.26916 18.6323 9.36817 18.4343 9.56617L8.1009 19.8996C7.87711 20.1234 7.76521 20.2353 7.63908 20.3272C7.52709 20.4088 7.40692 20.4785 7.28052 20.5353C7.13815 20.5992 6.98548 20.6408 6.68014 20.7241L2 22.0005Z" stroke="#206B8B" stroke-width="2" stroke-linecap="round" stroke-linejoin="round"/>
</svg>
