<svg width="24" height="24" viewBox="0 0 24 24" fill="none" xmlns="http://www.w3.org/2000/svg">
<g id="PlugsConnected">
<path id="Vector" d="M7.5 16.5L2.625 21.375" stroke="#03012C" stroke-width="2" stroke-linecap="round" stroke-linejoin="round"/>
<path id="Vector_2" d="M21.375 2.625L16.5 7.5" stroke="#03012C" stroke-width="2" stroke-linecap="round" stroke-linejoin="round"/>
<path id="Vector_3" d="M12.2869 6.46467L6.46649 12.285C5.58781 13.1637 5.58781 14.5883 6.46649 15.467L8.53478 17.5353C9.41346 18.414 10.8381 18.414 11.7168 17.5353L17.5371 11.7149C18.4158 10.8363 18.4158 9.41164 17.5371 8.53296L15.4688 6.46468C14.5902 5.586 13.1655 5.586 12.2869 6.46467Z" stroke="#03012C" stroke-width="2" stroke-linecap="round" stroke-linejoin="round"/>
<path id="Vector_4" d="M8.625 8.625L15.375 15.375" stroke="#03012C" stroke-width="2" stroke-linecap="round" stroke-linejoin="round"/>
<path id="Vector_5" d="M14.625 19.875L15.1219 21.375" stroke="#03012C" stroke-width="2" stroke-linecap="round" stroke-linejoin="round"/>
<path id="Vector_6" d="M8.87812 2.625L9.375 4.125" stroke="#03012C" stroke-width="2" stroke-linecap="round" stroke-linejoin="round"/>
<path id="Vector_7" d="M19.875 14.625L21.375 15.1219" stroke="#03012C" stroke-width="2" stroke-linecap="round" stroke-linejoin="round"/>
<path id="Vector_8" d="M2.625 8.87811L4.125 9.37499" stroke="#03012C" stroke-width="2" stroke-linecap="round" stroke-linejoin="round"/>
</g>
</svg>
