<svg width="20" height="20" viewBox="0 0 20 20" fill="none" xmlns="http://www.w3.org/2000/svg">
<path d="M10.0418 4.29395C6.89052 4.29395 4.3335 6.85097 4.3335 10.0023C4.3335 13.1536 6.89052 15.7085 10.0418 15.7085C13.1931 15.7085 15.748 13.1536 15.748 10.0023C15.748 6.85097 13.1952 4.29395 10.0418 4.29395ZM10.0418 14.3756C7.62917 14.3756 5.66641 12.4149 5.66641 10.0023C5.66641 7.58962 7.62917 5.62686 10.0418 5.62686C12.4545 5.62686 14.4151 7.58962 14.4151 10.0023C14.4151 12.4149 12.4545 14.3756 10.0418 14.3756Z" fill="#FDFFFC"/>
<path d="M10.0418 3.51748C10.0941 3.51748 10.1423 3.52585 10.1946 3.52585C10.0523 3.1492 9.76142 2.42938 9.42243 1.7556C8.83863 0.60473 9.12111 0 9.12111 0C9.12111 0 8.55196 0.175769 8.00582 1.26387C7.60824 2.04855 8.09161 3.11781 8.44105 3.72464C8.95371 3.5949 9.4873 3.51748 10.0418 3.51748Z" fill="#FDFFFC"/>
<path d="M7.70459 3.95467C7.75062 3.93793 7.80084 3.92537 7.84897 3.90863C7.57904 3.60941 7.05173 3.04234 6.49094 2.53596C5.53049 1.67385 5.57443 1.00635 5.57443 1.00635C5.57443 1.00635 5.1099 1.37672 4.98853 2.58827C4.90274 3.46712 5.73974 4.28947 6.28378 4.7268C6.71693 4.42129 7.18774 4.15764 7.70249 3.95467H7.70459Z" fill="#FDFFFC"/>
<path d="M5.68095 5.20425C5.7207 5.17286 5.76046 5.14356 5.79813 5.10799C5.43822 4.92594 4.74142 4.58905 4.03625 4.32121C2.82888 3.85877 2.63219 3.22266 2.63219 3.22266C2.63219 3.22266 2.32877 3.73741 2.6552 4.90711C2.89165 5.75666 3.96929 6.22329 4.6347 6.43672C4.92765 5.99521 5.26873 5.5809 5.68095 5.20425Z" fill="#FDFFFC"/>
<path d="M4.24127 7.10618C4.26429 7.06015 4.29358 7.01621 4.3166 6.97227C3.91484 6.93251 3.14481 6.86764 2.38942 6.87183C1.09835 6.87601 0.681943 6.35498 0.681943 6.35498C0.681943 6.35498 0.585688 6.94088 1.31388 7.91807C1.84118 8.62533 3.01298 8.67137 3.70978 8.62952C3.82068 8.11267 3.99226 7.59792 4.24127 7.10409V7.10618Z" fill="#FDFFFC"/>
<path d="M3.58862 9.39152C3.59281 9.3413 3.60327 9.29108 3.61164 9.23877C3.22453 9.34967 2.47751 9.56729 1.77443 9.84141C0.573343 10.3143 0 9.97742 0 9.97742C0 9.97742 0.121365 10.5591 1.15087 11.2078C1.89998 11.6786 3.009 11.2957 3.64512 11.0048C3.56142 10.4817 3.5384 9.94394 3.58862 9.39152Z" fill="#FDFFFC"/>
<path d="M3.80203 11.7615C3.78948 11.7134 3.77902 11.6611 3.76855 11.6108C3.44422 11.8515 2.82903 12.3265 2.27661 12.8349C1.32452 13.7075 0.66748 13.6029 0.66748 13.6029C0.66748 13.6029 0.987632 14.103 2.18244 14.3353C3.05083 14.5048 3.94642 13.7494 4.43606 13.2472C4.17031 12.7889 3.95479 12.2951 3.80203 11.7615Z" fill="#FDFFFC"/>
<path d="M4.85643 13.8941C4.82923 13.8523 4.79993 13.8104 4.77482 13.7686C4.55721 14.1096 4.15545 14.773 3.82065 15.4467C3.24731 16.606 2.59863 16.7441 2.59863 16.7441C2.59863 16.7441 3.08409 17.0935 4.27681 16.8822C5.14729 16.7232 5.71226 15.6957 5.98638 15.0513C5.57416 14.7185 5.19123 14.3377 4.85643 13.8941Z" fill="#FDFFFC"/>
<path d="M6.61418 15.5034C6.56815 15.4762 6.52839 15.4448 6.48654 15.4155C6.40912 15.811 6.27102 16.5748 6.20615 17.3239C6.08897 18.6108 5.53027 18.9749 5.53027 18.9749C5.53027 18.9749 6.1078 19.1255 7.14777 18.4957C7.90107 18.0353 8.05591 16.8719 8.07893 16.173C7.57255 16.0161 7.08081 15.7943 6.61418 15.5013V15.5034Z" fill="#FDFFFC"/>
<path d="M8.82811 16.3713C8.77789 16.3587 8.72977 16.3462 8.68164 16.3315C8.75488 16.7312 8.89926 17.4929 9.10851 18.2169C9.46423 19.4577 9.07503 19.9997 9.07503 19.9997C9.07503 19.9997 9.66511 19.9327 10.4079 18.9681C10.9478 18.2692 10.6695 17.1288 10.4393 16.4676C9.91412 16.501 9.37216 16.4738 8.82811 16.3713Z" fill="#FDFFFC"/>
<path d="M11.2097 16.3824C11.1574 16.3886 11.1051 16.3928 11.0591 16.4012C11.2662 16.7465 11.6785 17.4014 12.1367 18.0019C12.913 19.0315 12.7456 19.6759 12.7456 19.6759C12.7456 19.6759 13.275 19.4018 13.6182 18.2342C13.8672 17.3888 13.1997 16.4242 12.7456 15.8906C12.2665 16.1103 11.7538 16.2798 11.2097 16.3824Z" fill="#FDFFFC"/>
<path d="M13.4298 15.5328C13.3859 15.5579 13.3419 15.5809 13.2959 15.6039C13.6181 15.8508 14.2354 16.3154 14.882 16.7109C15.9764 17.3888 16.0538 18.0501 16.0538 18.0501C16.0538 18.0501 16.4451 17.6023 16.3447 16.3907C16.2756 15.514 15.3005 14.8527 14.6895 14.52C14.3191 14.9009 13.9048 15.2419 13.4298 15.5349V15.5328Z" fill="#FDFFFC"/>
<path d="M15.198 13.936C15.1666 13.9758 15.131 14.0134 15.0996 14.0511C15.4846 14.1641 16.2316 14.3754 16.9745 14.5094C18.2446 14.7458 18.5522 15.3338 18.5522 15.3338C18.5522 15.3338 18.7573 14.7751 18.2279 13.6828C17.8408 12.8898 16.6962 12.624 16.0057 12.5361C15.7985 13.0237 15.5348 13.4945 15.198 13.936Z" fill="#FDFFFC"/>
<path d="M16.2693 11.8124C16.2568 11.8605 16.2358 11.9086 16.2212 11.9567C16.6229 11.9233 17.393 11.8479 18.1358 11.7098C19.4039 11.4734 19.904 11.9086 19.904 11.9086C19.904 11.9086 19.8935 11.3143 19.0021 10.4857C18.3597 9.88517 17.1963 10.0505 16.5162 10.2179C16.4974 10.7473 16.4263 11.2809 16.2693 11.8144V11.8124Z" fill="#FDFFFC"/>
<path d="M16.5033 9.44329C16.5096 9.49351 16.5096 9.54373 16.5096 9.59186C16.8716 9.42027 17.5663 9.06873 18.2066 8.67325C19.3052 7.99319 19.9287 8.22127 19.9287 8.22127C19.9287 8.22127 19.7027 7.67095 18.577 7.21897C17.7588 6.89045 16.7356 7.46588 16.1602 7.86555C16.3359 8.36566 16.4552 8.89087 16.5054 9.44329H16.5033Z" fill="#FDFFFC"/>
<path d="M15.8652 7.14789C15.8883 7.19601 15.9071 7.24205 15.9238 7.28808C16.2021 6.99513 16.719 6.41761 17.1731 5.81706C17.9556 4.78755 18.619 4.775 18.619 4.775C18.619 4.775 18.2109 4.34185 16.9952 4.32721C16.1143 4.31884 15.3651 5.2207 14.978 5.80451C15.3191 6.20626 15.6225 6.64987 15.8652 7.14789Z" fill="#FDFFFC"/>
<path d="M14.4467 5.23942C14.4823 5.275 14.5178 5.31266 14.5534 5.35032C14.7041 4.97577 14.9803 4.25177 15.1853 3.52567C15.5432 2.28273 16.1563 2.03163 16.1563 2.03163C16.1563 2.03163 15.6164 1.77635 14.4802 2.20112C13.6536 2.50872 13.2812 3.62402 13.1284 4.30617C13.595 4.55518 14.0345 4.86277 14.4467 5.23733V5.23942Z" fill="#FDFFFC"/>
<path d="M12.4313 3.97369C12.4774 3.99462 12.5255 4.01763 12.5673 4.03647C12.5757 3.63471 12.5694 2.85839 12.5025 2.10719C12.3832 0.820305 12.8687 0.364142 12.8687 0.364142C12.8687 0.364142 12.2765 0.322292 11.3663 1.12581C10.7092 1.7138 10.7636 2.8856 10.8662 3.57821C11.3893 3.64308 11.9166 3.77072 12.4313 3.97369Z" fill="#FDFFFC"/>
</svg>
