<svg width="24" height="24" viewBox="0 0 24 24" fill="none" xmlns="http://www.w3.org/2000/svg">
<g id="WifiHigh">
<path id="Vector" d="M8.70938 15.5719C9.59444 14.7228 10.7735 14.2486 12 14.2486C13.2265 14.2486 14.4056 14.7228 15.2906 15.5719" stroke="#03012C" stroke-width="2" stroke-linecap="round" stroke-linejoin="round"/>
<path id="Vector_2" d="M5.53125 12.3844C7.26132 10.6962 9.58278 9.75128 12 9.75128C14.4172 9.75128 16.7387 10.6962 18.4688 12.3844" stroke="#03012C" stroke-width="2" stroke-linecap="round" stroke-linejoin="round"/>
<path id="Vector_3" d="M2.35312 9.20626C4.92455 6.67222 8.38979 5.25171 12 5.25171C15.6102 5.25171 19.0754 6.67222 21.6469 9.20626" stroke="#03012C" stroke-width="2" stroke-linecap="round" stroke-linejoin="round"/>
<path id="Vector_4" d="M12.5 18.75C12.5 19.0261 12.2761 19.25 12 19.25C11.7239 19.25 11.5 19.0261 11.5 18.75C11.5 18.4739 11.7239 18.25 12 18.25C12.2761 18.25 12.5 18.4739 12.5 18.75Z" fill="#03012C" stroke="#03012C" stroke-width="2"/>
</g>
</svg>
