<svg width="57" height="56" fill="none" xmlns="http://www.w3.org/2000/svg">
    <path d="M21.685 22.076 32.08 11.061c3.386-3.588 8.935-3.879 12.376-.632 3.44 3.247 3.472 8.804-.055 12.136L34.022 33.563 21.685 22.076Z" fill="url(#a)"/>
    <path d="m34.527 32.608 9.722-10.302c3.18-3.37 3.108-8.601-.162-11.687-3.27-3.085-8.496-2.853-11.676.516L22.69 21.437l11.838 11.171Z" fill="url(#b)"/>
    <path d="M13.58 31.262c-3.201 3.393-3.163 8.632.086 11.698 3.25 3.066 8.482 2.801 11.684-.592l9.534-10.103L23.118 21.16l-9.534 10.104-.004-.003Z" fill="url(#c)"/>
    <path style="mix-blend-mode:multiply" d="m34.523 33.032 2.093-2.217-12.26-11.57-2.092 2.218 12.26 11.569Z" fill="url(#d)"/>
    <path d="M12.52 31.143c-3.247 3.44-2.967 8.98.625 12.37 3.592 3.389 9.138 3.348 12.385-.093l9.667-10.244-13.013-12.28-9.667 10.244.003.003Z" fill="url(#e)"/>
    <path d="m35.1 33.279.097-.103-13.013-12.28-.097.102L35.1 33.278Z" fill="#5EF7FF" style="mix-blend-mode:screen" opacity=".75"/>
    <path style="mix-blend-mode:screen" opacity=".5" d="m25.285 42.437 9.289-9.843-2.026-1.912L23.01 40.79c-2.302 2.44-4.463 4.27-7.329 3.606 3.119 1.447 7.013.787 9.6-1.955l.004-.003Z" fill="url(#f)"/>
    <path style="mix-blend-mode:screen" opacity=".75" d="m44.2 22.394-9.39 9.95-2.025-1.912 9.635-10.21c2.325-2.464 4.046-4.747 3.23-7.584 1.615 3.04 1.16 6.99-1.454 9.76l.003-.004Z" fill="url(#g)"/>
    <defs>
        <linearGradient id="a" x1="46.818" y1="7.734" x2="30.278" y2="25.261" gradientUnits="userSpaceOnUse">
            <stop stop-color="#F4F4F4"/>
            <stop offset=".2" stop-color="#F0F1F2"/>
            <stop offset=".36" stop-color="#E7E9EC"/>
            <stop offset=".5" stop-color="#D6DAE1"/>
            <stop offset=".57" stop-color="#CAD0DA"/>
        </linearGradient>
        <linearGradient id="b" x1="42.267" y1="24.407" x2="30.429" y2="13.236" gradientUnits="userSpaceOnUse">
            <stop stop-color="#F4F4F4"/>
            <stop offset=".06" stop-color="#EFEFF1"/>
            <stop offset=".14" stop-color="#E1E4E8"/>
            <stop offset=".21" stop-color="#CAD0DA"/>
            <stop offset=".25" stop-color="#B8C1CD"/>
            <stop offset=".29" stop-color="#AAB5C3"/>
            <stop offset=".34" stop-color="#A1AEBD"/>
            <stop offset=".43" stop-color="#9FACBC"/>
            <stop offset=".51" stop-color="#ABB6C4"/>
            <stop offset=".65" stop-color="#CAD0DA"/>
            <stop offset=".82" stop-color="#EAEAEA"/>
        </linearGradient>
        <linearGradient id="c" x1="27.119" y1="40.292" x2="15.402" y2="29.236" gradientUnits="userSpaceOnUse">
            <stop stop-color="#F4F4F4"/>
            <stop offset=".06" stop-color="#EFEFF1"/>
            <stop offset=".14" stop-color="#E1E4E8"/>
            <stop offset=".21" stop-color="#CAD0DA"/>
            <stop offset=".25" stop-color="#B8C1CD"/>
            <stop offset=".29" stop-color="#AAB5C3"/>
            <stop offset=".34" stop-color="#A1AEBD"/>
            <stop offset=".43" stop-color="#9FACBC"/>
            <stop offset=".51" stop-color="#ABB6C4"/>
            <stop offset=".65" stop-color="#CAD0DA"/>
            <stop offset=".82" stop-color="#EAEAEA"/>
        </linearGradient>
        <linearGradient id="d" x1="30.484" y1="25.028" x2="26.5" y2="29" gradientUnits="userSpaceOnUse">
            <stop stop-color="#fff"/>
            <stop offset=".17" stop-color="#F8F9FA"/>
            <stop offset=".41" stop-color="#E6EAEE"/>
            <stop offset=".68" stop-color="#C9D0D9"/>
            <stop offset=".99" stop-color="#A0ADBD"/>
            <stop offset="1" stop-color="#9FACBC"/>
        </linearGradient>
        <linearGradient id="e" x1="27.424" y1="41.413" x2="14.41" y2="29.133" gradientUnits="userSpaceOnUse">
            <stop stop-color="#F4F4F4"/>
            <stop offset=".06" stop-color="#EFEFF1"/>
            <stop offset=".14" stop-color="#E1E4E8"/>
            <stop offset=".21" stop-color="#CAD0DA"/>
            <stop offset=".25" stop-color="#B8C1CD"/>
            <stop offset=".29" stop-color="#AAB5C3"/>
            <stop offset=".34" stop-color="#A1AEBD"/>
            <stop offset=".43" stop-color="#9FACBC"/>
            <stop offset=".51" stop-color="#ABB6C4"/>
            <stop offset=".65" stop-color="#CAD0DA"/>
            <stop offset=".82" stop-color="#EAEAEA"/>
        </linearGradient>
        <linearGradient id="f" x1="32.524" y1="30.653" x2="17.734" y2="46.326" gradientUnits="userSpaceOnUse">
            <stop/>
            <stop offset=".02" stop-color="#131313"/>
            <stop offset=".07" stop-color="#444"/>
            <stop offset=".13" stop-color="#707070"/>
            <stop offset=".19" stop-color="#979797"/>
            <stop offset=".26" stop-color="#B7B7B7"/>
            <stop offset=".33" stop-color="#D1D1D1"/>
            <stop offset=".4" stop-color="#E5E5E5"/>
            <stop offset=".49" stop-color="#F4F4F4"/>
            <stop offset=".6" stop-color="#FCFCFC"/>
            <stop offset=".77" stop-color="#fff"/>
            <stop offset=".86" stop-color="#A2A2A2"/>
            <stop offset="1"/>
        </linearGradient>
        <linearGradient id="g" x1="32.757" y1="30.407" x2="47.7" y2="14.572" gradientUnits="userSpaceOnUse">
            <stop/>
            <stop offset=".02" stop-color="#090909"/>
            <stop offset=".15" stop-color="#494949"/>
            <stop offset=".29" stop-color="gray"/>
            <stop offset=".41" stop-color="#ADADAD"/>
            <stop offset=".54" stop-color="#D1D1D1"/>
            <stop offset=".65" stop-color="#EAEAEA"/>
            <stop offset=".75" stop-color="#F9F9F9"/>
            <stop offset=".84" stop-color="#fff"/>
            <stop offset=".85" stop-color="#F7F7F7"/>
            <stop offset=".87" stop-color="#E2E2E2"/>
            <stop offset=".9" stop-color="#C1C1C1"/>
            <stop offset=".93" stop-color="#929292"/>
            <stop offset=".96" stop-color="#555"/>
            <stop offset=".99" stop-color="#0D0D0D"/>
            <stop offset="1"/>
        </linearGradient>
    </defs>
</svg>
