<svg width="57" height="56" viewBox="0 0 57 56" fill="none" xmlns="http://www.w3.org/2000/svg">
<g id="Group 1896">
<g id="Group">
<g id="Group_2">
<path id="Vector" d="M14.7403 26.5787C16.073 25.1714 17.7244 24.0732 19.5101 23.408C20.9431 22.8711 22.2598 22.0003 23.3208 20.88C24.3818 19.7596 25.1796 18.3974 25.6377 16.9373C26.2047 15.118 27.2114 13.4093 28.5441 12.002C33.1566 7.13127 40.6517 6.72034 45.2591 11.0834C49.8664 15.4464 49.8603 22.9568 45.2516 27.8235C43.9188 29.2309 42.2675 30.3291 40.4818 30.9943C39.0487 31.5312 37.732 32.4019 36.671 33.5223C35.6101 34.6427 34.8123 36.0048 34.3542 37.465C33.7871 39.2842 32.7805 40.9929 31.4477 42.4003C26.8353 47.271 19.3401 47.6819 14.7328 43.3189C10.1255 38.9559 10.1316 31.4455 14.7403 26.5787Z" fill="url(#paint0_linear_1313_7447)"/>
<path id="Vector_2" d="M31.0549 42.0277C32.3801 40.6282 33.3049 39.006 33.8407 37.3063C34.82 34.1698 37.2137 31.6421 40.2959 30.4896C41.9642 29.8697 43.5334 28.8504 44.8587 27.4509C49.2701 22.7925 49.2821 15.6381 44.8871 11.4761C40.492 7.31415 33.3489 7.71549 28.9375 12.3739C27.6122 13.7734 26.6875 15.3956 26.1516 17.0953C25.1724 20.2318 22.7786 22.7595 19.6964 23.9119C18.0282 24.5318 16.4589 25.5512 15.1337 26.9507C10.7222 31.6091 10.7103 38.7635 15.1053 42.9255C19.5003 47.0875 26.6434 46.6861 31.0549 42.0277Z" fill="url(#paint1_linear_1313_7447)"/>
<path id="Vector_3" d="M15.9194 27.6955C17.0995 26.4493 18.4987 25.5151 20.076 24.9283C21.7402 24.3047 23.2714 23.294 24.4999 21.9967C25.7284 20.6995 26.6582 19.1192 27.1863 17.4198C27.6864 15.813 28.5432 14.3649 29.7233 13.1188C33.7177 8.90063 40.1873 8.51763 44.142 12.2627C48.0968 16.0077 48.0665 22.4885 44.072 26.7067C42.8919 27.9529 41.4927 28.8871 39.9155 29.4739C38.2512 30.0975 36.72 31.1082 35.4915 32.4055C34.263 33.7027 33.3332 35.283 32.8051 36.9824C32.305 38.5893 31.4483 40.0373 30.2682 41.2834C26.2737 45.5016 19.8041 45.8846 15.8494 42.1395C11.8946 38.3945 11.9249 31.9137 15.9194 27.6955Z" fill="url(#paint2_linear_1313_7447)"/>
</g>
<path id="Vector_4" d="M24.0373 21.8788C24.4542 21.4385 25.1354 21.42 25.5678 21.8295L35.7338 31.4564C36.1662 31.8659 36.1848 32.5471 35.7753 32.9796C35.3658 33.412 34.6772 33.4384 34.2447 33.0289L24.0787 23.402C23.6463 22.9925 23.6278 22.3113 24.0373 21.8788Z" fill="url(#paint3_linear_1313_7447)"/>
</g>
</g>
<defs>
<linearGradient id="paint0_linear_1313_7447" x1="37" y1="56" x2="32.5449" y2="12.9265" gradientUnits="userSpaceOnUse">
<stop stop-color="#B4BECB"/>
<stop offset="1" stop-color="#EBEBEB"/>
</linearGradient>
<linearGradient id="paint1_linear_1313_7447" x1="50.0953" y1="17.4853" x2="14.0897" y2="11.5325" gradientUnits="userSpaceOnUse">
<stop stop-color="#F9F9F9"/>
<stop offset="1" stop-color="#BAC2CE"/>
</linearGradient>
<linearGradient id="paint2_linear_1313_7447" x1="48.8159" y1="17.7053" x2="15.9879" y2="11.4595" gradientUnits="userSpaceOnUse">
<stop stop-color="#F1F2F2"/>
<stop offset="1" stop-color="#D8DEE8"/>
</linearGradient>
<linearGradient id="paint3_linear_1313_7447" x1="30.6918" y1="26.5997" x2="29.1766" y2="28.1997" gradientUnits="userSpaceOnUse">
<stop stop-color="#A7B3C1"/>
<stop offset="0.21" stop-color="#C1C9D3"/>
<stop offset="0.5" stop-color="#DFE3E7"/>
<stop offset="0.75" stop-color="#F2F3F4"/>
<stop offset="0.93" stop-color="#F9F9F9"/>
</linearGradient>
</defs>
</svg>
