<svg width="56" height="56" viewBox="0 0 56 56" fill="none" xmlns="http://www.w3.org/2000/svg">
<g id="Group 1900">
<g id="Group">
<path id="Vector" d="M39.5991 32.8965C38.5565 33.9392 37.1662 34.6265 35.6862 34.8257C35.612 34.8374 35.5495 34.8686 35.4988 34.9194C35.448 34.9702 35.4167 35.0327 35.405 35.1069C35.2059 36.5869 34.5225 37.9732 33.4759 39.0198C32.6441 39.8516 31.5936 40.4569 30.4338 40.7654L19.4057 43.7177C17.0353 44.3542 14.5829 43.6981 12.8451 41.9603C11.1073 40.2226 10.4513 37.7701 11.0878 35.3997L14.0401 24.3717C14.3525 23.2157 14.9539 22.1614 15.7857 21.3296C16.8283 20.2869 18.2186 19.5996 19.6986 19.4004C19.7728 19.3887 19.8392 19.3614 19.89 19.3106C19.9407 19.2598 19.972 19.1974 19.9798 19.1193C20.1789 17.6392 20.8623 16.2529 21.9089 15.2063C22.7407 14.3745 23.7912 13.7692 24.951 13.4607L35.983 10.5046C38.3534 9.86802 40.8097 10.528 42.5436 12.2619C44.2775 13.9957 44.9374 16.4521 44.3009 18.8225L41.3486 29.8506C41.0401 31.0104 40.4348 32.0609 39.603 32.8926L39.5991 32.8965Z" fill="url(#paint0_linear_1313_7427)"/>
<path id="Vector_2" d="M39.04 32.3381C38.1184 33.2597 36.8883 33.865 35.5801 34.0408C35.3341 34.0759 35.1115 34.1813 34.9358 34.3571C34.76 34.5328 34.6507 34.7515 34.6194 35.0014C34.4437 36.3096 33.8384 37.5397 32.9168 38.4614C32.1826 39.1955 31.2532 39.7266 30.2301 40L19.202 42.9523C17.1089 43.5146 14.9415 42.9327 13.4068 41.398C11.8721 39.8633 11.2902 37.696 11.8526 35.6028L14.8048 24.5747C15.0782 23.5516 15.6093 22.6222 16.3435 21.888C17.2651 20.9664 18.4952 20.3611 19.8034 20.1854C20.0494 20.1502 20.272 20.0448 20.4477 19.869C20.6235 19.6933 20.7328 19.4746 20.7641 19.2247C20.9398 17.9165 21.5451 16.6864 22.4667 15.7648C23.2009 15.0306 24.1303 14.4995 25.1534 14.2261L36.1815 11.2739C38.2746 10.7115 40.442 11.2934 41.9767 12.8281C43.5114 14.3628 44.0933 16.5302 43.5309 18.6233L40.5787 29.6514C40.3053 30.6745 39.7742 31.604 39.04 32.3381Z" fill="url(#paint1_linear_1313_7427)"/>
<path id="Vector_3" d="M36.596 12.8055L25.5679 15.7578C23.713 16.2538 22.5571 17.7768 22.3384 19.4403C22.1743 20.6509 21.2293 21.596 20.0226 21.7561C18.3551 21.9787 16.836 23.1307 16.3401 24.9856L13.3878 36.0137C12.5053 39.3018 15.5122 42.3088 18.8003 41.4262L29.8284 38.4739C31.6833 37.978 32.8392 36.455 33.0579 34.7914C33.2219 33.5808 34.167 32.6358 35.3737 32.4757C37.0412 32.2531 38.5603 31.1011 39.0562 29.2461L42.0085 18.218C42.891 14.9299 39.8841 11.923 36.596 12.8055Z" fill="url(#paint2_linear_1313_7427)"/>
<path id="Vector_4" d="M21.2419 20.5442L21.1482 20.6379C20.6716 21.1146 20.6715 21.8874 21.1482 22.364L32.4965 33.7123C32.9731 34.189 33.7459 34.1889 34.2226 33.7123L34.3163 33.6186C34.7929 33.1419 34.7929 32.3692 34.3163 31.8925L22.968 20.5442C22.4913 20.0676 21.7186 20.0676 21.2419 20.5442Z" fill="url(#paint3_linear_1313_7427)"/>
</g>
</g>
<defs>
<linearGradient id="paint0_linear_1313_7427" x1="17.5242" y1="19.6659" x2="36.2083" y2="36.4086" gradientUnits="userSpaceOnUse">
<stop stop-color="#EBEBEB"/>
<stop offset="1" stop-color="#B4BECB"/>
</linearGradient>
<linearGradient id="paint1_linear_1313_7427" x1="7.94132" y1="34.9008" x2="44.8694" y2="39.5954" gradientUnits="userSpaceOnUse">
<stop stop-color="#F9F9F9"/>
<stop offset="1" stop-color="#BAC2CE"/>
</linearGradient>
<linearGradient id="paint2_linear_1313_7427" x1="9.82592" y1="34.6349" x2="42.3649" y2="39.7846" gradientUnits="userSpaceOnUse">
<stop stop-color="#EEEEEF"/>
<stop offset="1" stop-color="#D8DEE8"/>
</linearGradient>
<linearGradient id="paint3_linear_1313_7427" x1="26.7723" y1="28.0882" x2="28.6239" y2="26.2366" gradientUnits="userSpaceOnUse">
<stop stop-color="#A7B3C1"/>
<stop offset="0.21" stop-color="#C1C9D3"/>
<stop offset="0.5" stop-color="#DFE3E7"/>
<stop offset="0.75" stop-color="#F2F3F4"/>
<stop offset="0.93" stop-color="#F9F9F9"/>
</linearGradient>
</defs>
</svg>
