<svg width="61" height="60" viewBox="0 0 61 60" fill="none" xmlns="http://www.w3.org/2000/svg">
<g id="Group 1898">
<g id="Group">
<path id="Vector" d="M23.2517 49C19.904 49 16.9586 46.8594 15.9205 43.6726L11.3818 29.7183C10.3437 26.5316 11.4703 23.0712 14.1823 21.0995L26.0523 12.4727C27.3801 11.507 28.9413 11 30.583 11C32.2246 11 33.7858 11.507 35.1137 12.4727L46.9836 21.0995C49.6956 23.0712 50.8142 26.5316 49.7841 29.7183L45.2534 43.6726C44.2153 46.8594 41.27 49 37.9222 49H23.2437H23.2517Z" fill="url(#paint0_linear_1313_7491)"/>
<path id="Vector_2" d="M23.2517 48.5657C20.0891 48.5657 17.3127 46.5458 16.331 43.536L11.7922 29.5818C10.8185 26.572 11.8807 23.3048 14.4318 21.4458L26.3017 12.819C27.5491 11.9096 29.0298 11.4268 30.5749 11.4268C32.12 11.4268 33.6008 11.9096 34.8481 12.819L46.7181 21.4458C49.2772 23.3048 50.3394 26.572 49.3576 29.5818L44.8269 43.536C43.8532 46.5458 41.0688 48.5657 37.9061 48.5657H23.2276H23.2517Z" fill="url(#paint1_linear_1313_7491)"/>
<path id="Vector_3" d="M26.9213 14.3883L15.5422 22.6611C13.5384 24.1177 12.6934 26.709 13.4579 29.0669L17.8035 42.4498C18.568 44.8077 20.773 46.4091 23.2516 46.4091H37.3186C39.7972 46.4091 42.0022 44.8077 42.7667 42.4498L47.1123 29.0669C47.8768 26.709 47.0399 24.1177 45.028 22.6611L33.6489 14.3883C31.6451 12.9318 28.9251 12.9318 26.9132 14.3883H26.9213Z" fill="url(#paint2_linear_1313_7491)"/>
</g>
</g>
<defs>
<linearGradient id="paint0_linear_1313_7491" x1="14.8905" y1="20.8581" x2="46.2352" y2="44.3405" gradientUnits="userSpaceOnUse">
<stop stop-color="#EBEBEB"/>
<stop offset="1" stop-color="#9FACBC"/>
</linearGradient>
<linearGradient id="paint1_linear_1313_7491" x1="15.2204" y1="21.1078" x2="45.8731" y2="44.0672" gradientUnits="userSpaceOnUse">
<stop stop-color="#F9F9F9"/>
<stop offset="1" stop-color="#BAC2CE"/>
</linearGradient>
<linearGradient id="paint2_linear_1313_7491" x1="17.0551" y1="22.4519" x2="44.4486" y2="42.9648" gradientUnits="userSpaceOnUse">
<stop stop-color="#EEEFF1"/>
<stop offset="1" stop-color="#D8DEE8"/>
</linearGradient>
</defs>
</svg>
