<svg width="56" height="56" viewBox="0 0 56 56" fill="none" xmlns="http://www.w3.org/2000/svg">
<g id="Group 1894">
<g id="Group">
<g id="Group_2">
<path id="Vector" d="M40 40C46.6274 33.3726 46.6274 22.6274 40 16C33.3726 9.37258 22.6274 9.37258 16 16C9.37258 22.6274 9.37258 33.3726 16 40C22.6274 46.6274 33.3726 46.6274 40 40Z" fill="url(#paint0_linear_1313_7434)"/>
<path id="Vector_2" d="M39.7639 39.7638C46.2609 33.2668 46.2609 22.7332 39.7639 16.2362C33.267 9.7393 22.7334 9.7393 16.2364 16.2362C9.73947 22.7332 9.73948 33.2668 16.2364 39.7638C22.7334 46.2607 33.267 46.2607 39.7639 39.7638Z" fill="url(#paint1_linear_1313_7434)"/>
<path id="Vector_3" d="M38.4618 38.462C44.2398 32.684 44.2398 23.316 38.4618 17.538C32.6838 11.7599 23.3157 11.7599 17.5377 17.538C11.7597 23.316 11.7597 32.684 17.5377 38.462C23.3157 44.2401 32.6838 44.2401 38.4618 38.462Z" fill="url(#paint2_linear_1313_7434)"/>
</g>
<path id="Vector_4" d="M38.934 16.7622L38.7846 16.6127C38.0843 15.9124 36.9489 15.9124 36.2486 16.6127L16.5636 36.2977C15.8633 36.998 15.8633 38.1334 16.5636 38.8337L16.7131 38.9831C17.4134 39.6834 18.5487 39.6834 19.249 38.9831L38.934 19.2981C39.6343 18.5978 39.6343 17.4625 38.934 16.7622Z" fill="url(#paint3_linear_1313_7434)"/>
</g>
</g>
<defs>
<linearGradient id="paint0_linear_1313_7434" x1="14.9498" y1="17.1519" x2="41.0499" y2="38.8543" gradientUnits="userSpaceOnUse">
<stop stop-color="#EBEBEB"/>
<stop offset="1" stop-color="#9FACBC"/>
</linearGradient>
<linearGradient id="paint1_linear_1313_7434" x1="15.5295" y1="19.6064" x2="43.1365" y2="38.1861" gradientUnits="userSpaceOnUse">
<stop stop-color="#F9F9F9"/>
<stop offset="1" stop-color="#BAC2CE"/>
</linearGradient>
<linearGradient id="paint2_linear_1313_7434" x1="35.5678" y1="40.2725" x2="20.0359" y2="15.0791" gradientUnits="userSpaceOnUse">
<stop stop-color="#D8DEE8"/>
<stop offset="1" stop-color="#EEEFF1"/>
</linearGradient>
<linearGradient id="paint3_linear_1313_7434" x1="26.5724" y1="26.3115" x2="29.2603" y2="28.9995" gradientUnits="userSpaceOnUse">
<stop stop-color="#A7B3C1"/>
<stop offset="0.21" stop-color="#C1C9D3"/>
<stop offset="0.5" stop-color="#DFE3E7"/>
<stop offset="0.75" stop-color="#F2F3F4"/>
<stop offset="0.93" stop-color="#F9F9F9"/>
</linearGradient>
</defs>
</svg>
