<svg width="56" height="56" viewBox="0 0 56 56" fill="none" xmlns="http://www.w3.org/2000/svg">
<g id="Group 1899">
<g id="Group">
<g id="Group_2">
<path id="Vector" d="M47 37.0641V17.9359C47 12.4485 42.5515 8 37.0641 8L17.9359 8C12.4485 8 7.99997 12.4485 7.99997 17.9359V37.0641C7.99997 42.5515 12.4485 47 17.9359 47H37.0641C42.5515 47 47 42.5515 47 37.0641Z" fill="url(#paint0_linear_1313_7474)"/>
<path id="Vector_2" d="M17.9358 8.75195H37.0556C42.128 8.75195 46.2394 12.8717 46.2394 17.9358V37.0556C46.2394 42.128 42.1197 46.2394 37.0556 46.2394H17.9358C12.8634 46.2394 8.75195 42.1197 8.75195 37.0556V17.9358C8.75195 12.8634 12.8717 8.75195 17.9358 8.75195Z" fill="url(#paint1_linear_1313_7474)"/>
<path id="Vector_3" d="M35.3429 12.1289H19.6577C15.4994 12.1289 12.1284 15.4999 12.1284 19.6582V35.3434C12.1284 39.5017 15.4994 42.8727 19.6577 42.8727H35.3429C39.5012 42.8727 42.8722 39.5017 42.8722 35.3434V19.6582C42.8722 15.4999 39.5012 12.1289 35.3429 12.1289Z" fill="url(#paint2_linear_1313_7474)"/>
</g>
<g id="Group_3">
<g id="Group_4">
<path id="Vector_4" d="M27.8544 12.6545C28.6901 20.1336 29.2918 24.3621 28.3893 26.61C28.0466 26.7437 27.7542 26.9108 27.4951 27.1281C27.2528 26.9192 26.9519 26.7437 26.6093 26.6016C25.7152 24.362 26.3085 20.142 27.1525 12.6545C27.1692 12.4623 27.3113 12.362 27.445 12.337C27.6372 12.3035 27.8377 12.4122 27.8628 12.6545H27.8544Z" fill="#BDBDBD"/>
<path id="Vector_5" d="M26.6014 26.6016C26.7434 26.9526 26.9189 27.2451 27.1279 27.4874C26.9106 27.7548 26.7435 28.0473 26.6098 28.3816C24.3618 29.2841 20.1334 28.6824 12.6543 27.8467C12.4621 27.83 12.3451 27.6796 12.3368 27.5292C12.3117 27.3454 12.412 27.1531 12.6543 27.1281C20.1418 26.2841 24.3618 25.6908 26.6014 26.5849V26.6016Z" fill="#BDBDBD"/>
<path id="Vector_6" d="M28.3899 28.3892C29.284 30.6288 28.7074 34.8572 27.855 42.3446C27.83 42.5953 27.5876 42.704 27.3954 42.6538C27.2617 42.612 27.1531 42.5118 27.1364 42.3363C26.3007 34.8572 25.7074 30.6371 26.6099 28.3892C26.9108 28.2555 27.1949 28.1051 27.4372 27.9129C27.4623 27.9045 27.479 27.8878 27.4957 27.8711C27.7464 28.0884 28.0389 28.2555 28.3815 28.3976L28.3899 28.3892Z" fill="#BDBDBD"/>
<path id="Vector_7" d="M42.6544 27.5301C42.6461 27.6972 42.5375 27.8309 42.3369 27.8644C34.8494 28.7084 30.621 29.2933 28.3814 28.3992C28.2394 28.0482 28.0806 27.7641 27.855 27.5134C28.0639 27.2543 28.2394 26.9535 28.3814 26.6276C30.6294 25.7251 34.8494 26.31 42.3285 27.154C42.5625 27.1791 42.6712 27.3713 42.6544 27.5468V27.5301Z" fill="#BDBDBD"/>
</g>
<path id="Vector_8" d="M26.6023 26.6021C26.7444 26.953 26.9199 27.2455 27.1288 27.4878C27.1204 27.4962 12.346 27.538 12.346 27.538C12.321 27.3541 12.4212 27.162 12.6636 27.1369C20.151 26.2929 24.3711 25.6995 26.6107 26.5937L26.6023 26.6021Z" fill="url(#paint3_linear_1313_7474)"/>
<path id="Vector_9" d="M42.6554 27.5287L27.8643 27.5036C28.0732 27.2446 28.2487 26.9437 28.3907 26.6178C30.6386 25.7153 34.8587 26.3003 42.3378 27.1443C42.5718 27.1694 42.6804 27.3616 42.6637 27.537L42.6554 27.5287Z" fill="url(#paint4_linear_1313_7474)"/>
<path id="Vector_10" d="M27.8548 12.654C28.6904 20.1331 29.2921 24.3615 28.3896 26.6094C28.047 26.7431 27.7545 26.9102 27.4954 27.1275L27.4453 12.3448C27.6375 12.3114 27.8381 12.42 27.8631 12.6623L27.8548 12.654Z" fill="url(#paint5_linear_1313_7474)"/>
<path id="Vector_11" d="M28.3899 28.3896C29.2841 30.6292 28.7075 34.8576 27.8551 42.3451C27.83 42.5958 27.5877 42.7044 27.3955 42.6543L27.4206 27.9551C27.4624 27.9133 27.4791 27.8966 27.4958 27.8799C27.7465 28.0972 28.039 28.2643 28.3816 28.4063L28.3899 28.3896Z" fill="url(#paint6_linear_1313_7474)"/>
</g>
</g>
</g>
<defs>
<linearGradient id="paint0_linear_1313_7474" x1="8.83563" y1="13.5237" x2="46.1643" y2="41.4763" gradientUnits="userSpaceOnUse">
<stop stop-color="#EBEBEB"/>
<stop offset="1" stop-color="#B3B9BF"/>
</linearGradient>
<linearGradient id="paint1_linear_1313_7474" x1="9.42883" y1="13.9664" x2="45.5625" y2="41.0333" gradientUnits="userSpaceOnUse">
<stop stop-color="#F9F9F9"/>
<stop offset="1" stop-color="#BAC2CE"/>
</linearGradient>
<linearGradient id="paint2_linear_1313_7474" x1="12.68" y1="16.3991" x2="42.3123" y2="38.5941" gradientUnits="userSpaceOnUse">
<stop stop-color="#E1E2E4"/>
<stop offset="1" stop-color="#D8DEE8"/>
</linearGradient>
<linearGradient id="paint3_linear_1313_7474" x1="15.977" y1="31.169" x2="23.5759" y2="23.5701" gradientUnits="userSpaceOnUse">
<stop stop-color="#E9F0FB"/>
<stop offset="1" stop-color="#FCFDFF"/>
</linearGradient>
<linearGradient id="paint4_linear_1313_7474" x1="31.4822" y1="31.109" x2="38.9571" y2="23.6342" gradientUnits="userSpaceOnUse">
<stop stop-color="#FCFDFF"/>
<stop offset="1" stop-color="#E9F0FB"/>
</linearGradient>
<linearGradient id="paint5_linear_1313_7474" x1="23.8822" y1="23.51" x2="31.357" y2="16.0351" gradientUnits="userSpaceOnUse">
<stop stop-color="#FCFDFF"/>
<stop offset="1" stop-color="#E9F0FB"/>
</linearGradient>
<linearGradient id="paint6_linear_1313_7474" x1="23.7998" y1="39.039" x2="31.4224" y2="31.4165" gradientUnits="userSpaceOnUse">
<stop stop-color="#E9F0FB"/>
<stop offset="1" stop-color="#FCFDFF"/>
</linearGradient>
</defs>
</svg>
