<svg width="56" height="56" viewBox="0 0 56 56" fill="none" xmlns="http://www.w3.org/2000/svg">
<g id="Group 1901">
<g id="Group">
<path id="Vector" d="M27.5228 48C20.5311 48 13 44.6736 13 37.3776C13 23.7953 19.3416 8 27.5228 8C35.704 8 42.0456 23.7884 42.0456 37.3776C42.0456 44.6736 34.5145 48 27.5228 48Z" fill="url(#paint0_linear_1313_7455)"/>
<path id="Vector_2" d="M41.3539 37.3774C41.3539 50.6209 13.6914 50.6209 13.6914 37.3774C13.6914 24.134 19.8809 8.69141 27.5227 8.69141C35.1644 8.69141 41.3539 24.134 41.3539 37.3774Z" fill="url(#paint1_linear_1313_7455)"/>
<path id="Vector_3" d="M38.9958 35.7731C38.9958 46.7551 16.0566 46.7551 16.0566 35.7731C16.0566 24.7911 21.188 11.9902 27.5227 11.9902C33.8575 11.9902 38.9889 24.798 38.9889 35.7731H38.9958Z" fill="url(#paint2_linear_1313_7455)"/>
<path id="Vector_4" d="M27.8269 39.5214C25.6623 39.5214 23.643 38.9958 22.1423 38.0345C20.4134 36.9349 19.5005 35.3513 19.5005 33.4702C19.5005 25.6141 23.1381 16.4785 27.8269 16.4785C32.5157 16.4785 36.1533 25.6141 36.1533 33.4702C36.1533 37.6265 31.838 39.5214 27.8269 39.5214ZM27.8269 16.9972C23.5046 16.9972 20.0192 26.0083 20.0192 33.4702C20.0192 37.2738 24.0648 39.0027 27.8269 39.0027C31.589 39.0027 35.6347 37.2738 35.6347 33.4702C35.6347 26.0083 32.1492 16.9972 27.8269 16.9972Z" fill="#F0F2F2"/>
<path id="Vector_5" d="M27.5227 39.5214C25.3581 39.5214 23.3388 38.9958 21.8381 38.0345C20.1092 36.9349 19.1963 35.3513 19.1963 33.4702C19.1963 25.6141 22.8339 16.4785 27.5227 16.4785C32.2115 16.4785 35.8491 25.6141 35.8491 33.4702C35.8491 37.6265 31.5338 39.5214 27.5227 39.5214ZM27.5227 16.9972C23.2004 16.9972 19.715 26.0083 19.715 33.4702C19.715 37.2738 23.7606 39.0027 27.5227 39.0027C31.2848 39.0027 35.3305 37.2738 35.3305 33.4702C35.3305 26.0083 31.845 16.9972 27.5227 16.9972Z" fill="url(#paint3_linear_1313_7455)"/>
</g>
</g>
<defs>
<linearGradient id="paint0_linear_1313_7455" x1="14.639" y1="19.9225" x2="42.0595" y2="40.4551" gradientUnits="userSpaceOnUse">
<stop stop-color="#EBEBEB"/>
<stop offset="1" stop-color="#9FACBC"/>
</linearGradient>
<linearGradient id="paint1_linear_1313_7455" x1="15.199" y1="20.3235" x2="41.4922" y2="40.0192" gradientUnits="userSpaceOnUse">
<stop stop-color="#F9F9F9"/>
<stop offset="1" stop-color="#BAC2CE"/>
</linearGradient>
<linearGradient id="paint2_linear_1313_7455" x1="17.3015" y1="21.6375" x2="39.1064" y2="37.9653" gradientUnits="userSpaceOnUse">
<stop stop-color="#EEEFF1"/>
<stop offset="1" stop-color="#D8DEE8"/>
</linearGradient>
<linearGradient id="paint3_linear_1313_7455" x1="19.1963" y1="28" x2="35.8561" y2="28" gradientUnits="userSpaceOnUse">
<stop stop-color="#C6D1DB"/>
<stop offset="1" stop-color="#BDC5D0"/>
</linearGradient>
</defs>
</svg>
